<?xml version="1.0" encoding="UTF-8"?>
<svg xmlns="http://www.w3.org/2000/svg" xmlns:xlink="http://www.w3.org/1999/xlink" width="2280" height="3000" viewBox="0 0 2280 3000">
<path fill-rule="nonzero" fill="rgb(0%, 0%, 0%)" fill-opacity="1" d="M 747.832031 2949.453125 C 728.179688 2919.183594 702.890625 2886.246094 691.632812 2876.265625 C 671.507812 2858.421875 670.476562 2859.078125 630.128906 2915.417969 C 607.5625 2946.9375 589.097656 2976.492188 589.097656 2981.101562 C 589.097656 2985.707031 582.039062 2989.480469 573.410156 2989.480469 C 554.613281 2989.480469 559.40625 2967.84375 594.390625 2894.777344 C 607.472656 2867.457031 616.769531 2843.703125 615.058594 2841.992188 C 613.34375 2840.277344 595.394531 2838.253906 575.167969 2837.492188 C 551.042969 2836.585938 527.910156 2843.859375 507.921875 2858.640625 C 471.378906 2885.65625 460.117188 2879.464844 482.808594 2844.832031 C 512.097656 2800.136719 547.5 2784.484375 623.667969 2782.5625 C 662.441406 2781.582031 697.488281 2780.460938 701.546875 2780.0625 C 713.511719 2778.890625 759.011719 2701.898438 816.027344 2586.355469 C 845.316406 2526.996094 869.28125 2476.335938 869.28125 2473.78125 C 869.28125 2471.222656 835.789062 2469.132812 794.851562 2469.132812 C 598.285156 2469.132812 390.148438 2372.964844 270.507812 2226.863281 L 213.847656 2157.667969 L 136.339844 2163.53125 C 93.710938 2166.753906 46.929688 2173.917969 32.382812 2179.449219 C 17.835938 2184.980469 3.792969 2187.367188 1.175781 2184.75 C -8.378906 2175.195312 42.492188 2106.308594 72.703125 2087.886719 C 113.433594 2063.050781 128.71875 2063.921875 172.421875 2093.582031 C 216.535156 2123.515625 220.515625 2108.417969 178.601562 2070.140625 C 148.539062 2042.679688 148.417969 2042.136719 157.699219 1976.589844 C 174.496094 1858 226.96875 1774.140625 317.785156 1720.75 C 356.324219 1698.101562 375.511719 1693.660156 433.992188 1693.910156 C 519.234375 1694.289062 548.882812 1708.398438 692.070312 1816.839844 C 851.679688 1937.71875 917.808594 1981.480469 1027.800781 2039 C 1083.980469 2068.375 1135.089844 2098.621094 1141.390625 2106.214844 C 1150.511719 2117.199219 1142.28125 2129.261719 1101.128906 2165.265625 C 1072.679688 2190.152344 1049.398438 2214.496094 1049.398438 2219.367188 C 1049.398438 2224.234375 1078.539062 2225.5 1114.160156 2222.171875 C 1149.769531 2218.847656 1211.679688 2221.023438 1251.75 2227.007812 C 1291.808594 2232.996094 1401.140625 2247.472656 1494.699219 2259.179688 C 1588.261719 2270.886719 1673.820312 2284.011719 1684.820312 2288.339844 C 1710.789062 2298.554688 1578.269531 2322.90625 1499.699219 2322.359375 C 1411.75 2321.746094 1098.910156 2267.824219 1044.398438 2243.882812 C 1027.890625 2236.628906 980.605469 2223.480469 939.328125 2214.65625 C 898.050781 2205.835938 840.191406 2187.433594 810.75 2173.765625 C 748.144531 2144.703125 739.195312 2143.542969 739.195312 2164.480469 C 739.195312 2202.378906 1022.738281 2282.574219 1284.558594 2318.730469 C 1491.441406 2347.296875 1497.628906 2349.238281 1428.390625 2363.882812 C 1364.191406 2377.460938 1312.53125 2372.734375 1106.621094 2334.441406 C 973.992188 2309.777344 839.875 2277.457031 734.191406 2244.699219 C 674.578125 2226.21875 656.175781 2225.078125 661.210938 2240.175781 C 671.902344 2272.253906 943.039062 2340.511719 1209.511719 2378.207031 L 1334.589844 2395.902344 L 1289.558594 2408.25 C 1196.449219 2433.78125 1171.421875 2439.113281 1144.660156 2439.113281 C 1118.441406 2439.113281 1117.839844 2440.175781 1131.851562 2461.628906 C 1139.929688 2474.011719 1163.429688 2526.921875 1184.070312 2579.207031 C 1204.710938 2631.488281 1233.078125 2700.332031 1247.109375 2732.1875 L 1272.628906 2790.109375 L 1315.371094 2783.699219 C 1370.839844 2775.382812 1422.421875 2792.863281 1454.339844 2830.808594 C 1495.421875 2879.625 1487.378906 2894.765625 1436.28125 2864.816406 C 1390.628906 2838.058594 1345.480469 2831.757812 1333.890625 2850.523438 C 1330.101562 2856.65625 1339.640625 2888.125 1355.089844 2920.457031 C 1385.910156 2984.921875 1380.578125 3011.984375 1346.441406 2964.445312 C 1334.589844 2947.941406 1308.960938 2917.1875 1289.5 2896.097656 L 1254.109375 2857.753906 L 1214.300781 2912.398438 C 1192.398438 2942.453125 1169.660156 2975.207031 1163.75 2985.183594 C 1140.808594 3023.976562 1142.078125 2980.625 1165.550781 2924.003906 C 1199.449219 2842.203125 1199.96875 2844.738281 1148.628906 2841.398438 C 1108.199219 2838.769531 1099 2842.25 1071.191406 2870.699219 C 1032.871094 2909.894531 1023.601562 2905.148438 1047.929688 2858.792969 C 1069.558594 2817.585938 1123.539062 2788.230469 1182.140625 2785.804688 C 1218.390625 2784.304688 1224.050781 2781.175781 1221.269531 2764.183594 C 1218.558594 2747.566406 1101.960938 2461.34375 1093.550781 2450.644531 C 1092.050781 2448.730469 1060.441406 2454.097656 1023.320312 2462.566406 C 955.199219 2478.101562 919.316406 2472.652344 919.316406 2446.765625 C 919.316406 2421.179688 898.726562 2458.882812 850.871094 2572.101562 C 823.441406 2636.992188 789.347656 2705.359375 775.101562 2724.035156 C 760.859375 2742.710938 749.203125 2759.980469 749.203125 2762.410156 C 749.203125 2764.84375 763.582031 2769.707031 781.152344 2773.21875 C 811.136719 2779.21875 899.304688 2859.554688 899.304688 2880.878906 C 899.304688 2885.667969 875.175781 2875.964844 845.6875 2859.324219 C 797.949219 2832.382812 759.847656 2825.398438 744.476562 2840.773438 C 741.589844 2843.65625 750.714844 2874.285156 764.753906 2908.832031 C 800.738281 2997.386719 792.222656 3017.824219 747.835938 2949.453125 Z M 909.308594 2394.808594 C 909.308594 2379.75 859.539062 2335.445312 851.574219 2343.414062 C 845.9375 2349.050781 891.21875 2407.757812 901.804688 2408.539062 C 905.933594 2408.839844 909.308594 2402.664062 909.308594 2394.808594 Z M 473.675781 2054.644531 C 509.710938 2039.585938 539.210938 1995.289062 538.84375 1956.78125 C 538.464844 1918.601562 501.660156 1849.480469 475.277344 1837.460938 C 439.765625 1821.28125 383.542969 1834.730469 359.640625 1865.121094 C 313.738281 1923.46875 328.570312 2010.617188 390.863281 2048.59375 C 430.378906 2072.6875 430.472656 2072.695312 473.675781 2054.644531 Z M 391.1875 2013.261719 C 353.117188 1986.589844 369.476562 1882.191406 414.425781 1864.941406 C 462.667969 1846.429688 509.042969 1886.941406 509.042969 1947.609375 C 509.042969 2013.492188 443.582031 2049.960938 391.1875 2013.261719 Z M 1604.769531 2257.730469 C 1571.75 2252.859375 1490.691406 2240.1875 1424.648438 2229.5625 C 1358.609375 2218.941406 1267.761719 2204.957031 1222.761719 2198.488281 C 1161.320312 2189.660156 1142.230469 2183.359375 1146.128906 2173.207031 C 1155.28125 2149.355469 1182.410156 2148.308594 1390.519531 2163.789062 C 1590.28125 2178.648438 1687.941406 2192.285156 1721.570312 2210.011719 C 1748.480469 2224.199219 1770.53125 2249.847656 1764.378906 2259.796875 C 1757.570312 2270.816406 1687.371094 2269.90625 1604.769531 2257.730469 Z M 1101.160156 2028.113281 C 1018.359375 1996.878906 949.335938 1954.839844 949.335938 1935.628906 C 949.335938 1919.179688 969.628906 1898.75 985.964844 1898.75 C 1012.628906 1898.75 1172.519531 1994.601562 1182.558594 2016.601562 C 1199.820312 2054.449219 1178.851562 2057.414062 1101.160156 2028.113281 Z M 1072.988281 1894.28125 C 1044.679688 1875.578125 1018.558594 1855.488281 1014.941406 1849.640625 C 1008.53125 1839.261719 1048.300781 1760.75 1077.300781 1726.539062 C 1090.949219 1710.429688 1094.011719 1710.558594 1129.308594 1728.558594 C 1177.21875 1753.011719 1229.519531 1796.898438 1229.519531 1812.671875 C 1229.519531 1819.390625 1223.308594 1833.371094 1215.710938 1843.761719 C 1202.511719 1861.820312 1199.050781 1860.78125 1136.128906 1819.78125 C 1099.941406 1796.210938 1065.628906 1779.828125 1059.871094 1783.390625 C 1046.011719 1791.960938 1046.410156 1818.699219 1060.398438 1818.699219 C 1085.179688 1818.699219 1190.230469 1892.558594 1187.320312 1907.929688 C 1181.789062 1937.230469 1128.339844 1930.839844 1072.988281 1894.28125 Z M 851.214844 1886.21875 C 794.335938 1850.769531 630.320312 1732.941406 587.035156 1696.429688 L 559.957031 1673.601562 L 570.253906 1588.539062 C 589.109375 1432.871094 568.265625 1332.261719 493.042969 1215.808594 C 412.78125 1091.558594 405.546875 1072.050781 400.980469 967.609375 C 398.019531 899.871094 401.589844 853.210938 413.230469 807.5 C 429.207031 744.769531 495.527344 598.648438 540.164062 527.839844 L 562.242188 492.820312 L 574.433594 522.199219 C 581.644531 539.589844 583.519531 562.070312 579.019531 577.238281 C 562.816406 631.871094 496.261719 773.621094 481.289062 785.378906 C 467.566406 796.171875 473.449219 805.210938 526.851562 855.429688 C 597.917969 922.261719 629.722656 984.128906 654.234375 1103.21875 C 670.507812 1182.289062 690.601562 1442.671875 682.152344 1464.949219 C 674.601562 1484.859375 696.289062 1489.148438 725.800781 1473.578125 C 755.289062 1458.019531 1007.570312 1357.371094 1140.789062 1308.011719 L 1217.160156 1279.710938 L 1197.53125 1346.570312 C 1186.730469 1383.339844 1153.601562 1462.960938 1123.898438 1523.5 C 1067.710938 1638.039062 926.4375 1895.628906 911.769531 1910.300781 C 907.140625 1914.929688 879.886719 1904.101562 851.214844 1886.21875 Z M 1312.078125 1871.410156 C 1288.691406 1869.308594 1269.550781 1863.339844 1269.550781 1858.148438 C 1269.550781 1852.960938 1273.179688 1848.71875 1277.628906 1848.71875 C 1282.070312 1848.71875 1299.988281 1828.449219 1317.449219 1803.691406 C 1334.910156 1778.921875 1353.980469 1758.660156 1359.839844 1758.660156 C 1372.960938 1758.660156 1518.511719 1851.269531 1519.210938 1860.058594 C 1520.558594 1876.890625 1428.78125 1881.921875 1312.078125 1871.410156 Z M 1375.210938 1843.398438 C 1364.519531 1835.320312 1348.769531 1828.859375 1340.179688 1829.058594 C 1330.191406 1829.28125 1333.570312 1834.550781 1349.601562 1843.710938 C 1382.339844 1862.429688 1400.089844 1862.210938 1375.210938 1843.410156 Z M 1489.738281 1806.191406 C 1455.039062 1782.800781 1416.070312 1756.910156 1403.148438 1748.648438 C 1390.230469 1740.390625 1379.789062 1729.140625 1379.960938 1723.640625 C 1380.300781 1712.039062 1425.601562 1658.589844 1435.070312 1658.589844 C 1450.109375 1658.589844 1678.648438 1802.488281 1674.441406 1809.308594 C 1669.25 1817.699219 1582.730469 1848.71875 1564.519531 1848.71875 C 1558.089844 1848.71875 1524.441406 1829.578125 1489.738281 1806.191406 Z M 1644.800781 1750.378906 C 1551.121094 1700.199219 1459.679688 1627.25 1459.679688 1602.699219 C 1459.679688 1596.128906 1467.558594 1581.359375 1477.191406 1569.871094 L 1494.699219 1548.980469 L 1604.769531 1604.800781 C 1706.730469 1656.5 1830.398438 1708.621094 1851.128906 1708.621094 C 1875.808594 1708.621094 1854.378906 1689.261719 1812.410156 1673.640625 C 1730.390625 1643.101562 1566 1561.480469 1535.878906 1536.320312 C 1510.691406 1515.300781 1508.5 1509.429688 1518.71875 1490.339844 C 1525.160156 1478.308594 1535.46875 1468.460938 1541.628906 1468.460938 C 1547.789062 1468.460938 1601.820312 1484.300781 1661.699219 1503.660156 C 1721.578125 1523.019531 1822.160156 1548.910156 1885.230469 1561.191406 C 1948.289062 1573.480469 1999.929688 1586.539062 1999.96875 1590.210938 C 2000 1593.871094 1972.660156 1621.648438 1939.191406 1651.929688 C 1872.460938 1712.320312 1755.441406 1779.101562 1718.390625 1777.929688 C 1705.429688 1777.519531 1672.320312 1765.121094 1644.800781 1750.378906 Z M 1193.851562 1735.691406 C 1171.480469 1723.558594 1142.570312 1705.921875 1129.621094 1696.488281 L 1106.058594 1679.359375 L 1124.28125 1638.949219 C 1134.308594 1616.730469 1143.621094 1598.550781 1144.980469 1598.550781 C 1146.339844 1598.550781 1171.550781 1614.859375 1201 1634.800781 C 1230.441406 1654.730469 1266.921875 1675.441406 1282.058594 1680.808594 C 1315.660156 1692.730469 1316.859375 1708.300781 1286.421875 1736.898438 C 1257.820312 1763.769531 1245.308594 1763.601562 1193.851562 1735.691406 Z M 1253.949219 1632.96875 C 1165.039062 1579.679688 1162.28125 1575.859375 1182.378906 1533.710938 C 1191.621094 1514.328125 1203.871094 1498.480469 1209.601562 1498.480469 C 1215.328125 1498.480469 1251.308594 1514.25 1289.558594 1533.511719 C 1327.808594 1552.769531 1368.230469 1568.53125 1379.371094 1568.53125 C 1390.519531 1568.53125 1399.640625 1573.441406 1399.640625 1579.441406 C 1399.640625 1599.25 1344.910156 1668.171875 1329 1668.378906 C 1320.421875 1668.5 1286.648438 1652.570312 1253.949219 1632.96875 Z M 1914.980469 1547.378906 C 1782.53125 1515.789062 1647.628906 1477 1598.089844 1456.25 C 1553.480469 1437.570312 1551.820312 1435.441406 1561.089844 1408.871094 C 1570.308594 1382.410156 1572.828125 1381.441406 1612.800781 1389.148438 C 1751.980469 1415.96875 1994.050781 1451.179688 2046.480469 1452.21875 C 2116.941406 1453.640625 2117.339844 1458.269531 2053.078125 1529.390625 C 2012.960938 1573.800781 2021.230469 1572.71875 1914.980469 1547.378906 Z M 1339.601562 1525.78125 C 1303.820312 1507.929688 1263.300781 1486.609375 1249.539062 1478.390625 C 1235.78125 1470.179688 1223.421875 1463.121094 1222.078125 1462.691406 C 1217.710938 1461.308594 1278.601562 1300.03125 1307.820312 1235.570312 C 1327.929688 1191.21875 1352.328125 1158.621094 1390.511719 1125.089844 C 1446.800781 1075.660156 1549.410156 1018.160156 1581.359375 1018.160156 C 1603.078125 1018.160156 1603.558594 1025.980469 1588.789062 1139.160156 C 1578.660156 1216.808594 1567.648438 1250.089844 1504.070312 1395.351562 L 1481.320312 1447.320312 L 1427.96875 1427.578125 C 1343.539062 1396.339844 1299.570312 1388.160156 1299.570312 1403.679688 C 1299.570312 1410.910156 1320.960938 1424 1347.101562 1432.78125 C 1373.238281 1441.558594 1411.28125 1454.539062 1431.621094 1461.628906 L 1468.609375 1474.519531 L 1443.558594 1516.519531 C 1429.789062 1539.621094 1415.390625 1558.460938 1411.578125 1558.378906 C 1407.761719 1558.308594 1375.371094 1543.628906 1339.601562 1525.78125 Z M 2045.070312 1431.570312 C 1960.101562 1424.109375 1653.191406 1365.898438 1622.289062 1351.371094 C 1586.128906 1334.390625 1585.980469 1334.121094 1599.058594 1309.679688 C 1607.808594 1293.328125 1620.871094 1293.929688 1821.710938 1319.820312 C 1939.050781 1334.949219 2063.199219 1347.558594 2097.601562 1347.859375 C 2151.769531 1348.308594 2160.140625 1350.878906 2160.140625 1367.050781 C 2160.140625 1393.191406 2122.039062 1438.789062 2101.878906 1436.761719 C 2092.640625 1435.839844 2067.078125 1433.5 2045.070312 1431.570312 Z M 719.183594 1373.398438 L 719.183594 1328.371094 L 761.710938 1328.300781 C 785.101562 1328.269531 816.304688 1321.941406 831.050781 1314.25 C 845.796875 1306.550781 860.429688 1302.828125 863.570312 1305.96875 C 874.335938 1316.730469 869.289062 1355.921875 855.683594 1367.210938 C 844.671875 1376.351562 735.359375 1418.410156 722.621094 1418.410156 C 720.726562 1418.410156 719.179688 1398.148438 719.179688 1373.390625 Z M 921.132812 1302.988281 C 923.710938 1272.179688 930.394531 1261.53125 956.140625 1247.199219 C 992.78125 1226.808594 1247.601562 1108.230469 1254.769531 1108.230469 C 1263.070312 1108.230469 1259.949219 1157.789062 1248.878906 1201.75 L 1238.21875 1244.089844 L 1096.28125 1287.511719 C 1018.210938 1311.390625 946.152344 1333.210938 936.144531 1336 C 920.496094 1340.359375 918.394531 1335.730469 921.132812 1302.988281 Z M 1808.289062 1295.519531 C 1616.320312 1275.789062 1611.738281 1274.789062 1619.460938 1254.308594 C 1626.851562 1234.710938 1633.96875 1233.460938 1726.148438 1235.558594 C 1780.46875 1236.808594 1914.289062 1230.859375 2023.519531 1222.359375 C 2132.75 1213.851562 2224.25 1209.019531 2226.851562 1211.621094 C 2229.449219 1214.230469 2221.710938 1239.308594 2209.640625 1267.359375 L 2187.699219 1318.359375 L 2096.371094 1317.050781 C 2046.140625 1316.328125 1916.5 1306.640625 1808.289062 1295.519531 Z M 719.183594 1262.769531 C 719.183594 1229.039062 722.167969 1225.898438 776.722656 1202.121094 C 808.367188 1188.328125 842.140625 1172.78125 851.769531 1167.570312 C 867.355469 1159.128906 869.28125 1163.480469 869.28125 1207.039062 C 869.28125 1244.578125 865.199219 1257.460938 851.769531 1262.320312 C 842.140625 1265.808594 823 1275.269531 809.242188 1283.359375 C 795.484375 1291.441406 769.589844 1298.121094 751.703125 1298.199219 C 721.082031 1298.359375 719.183594 1296.269531 719.183594 1262.769531 Z M 921.269531 1170.769531 C 924.214844 1124.859375 926.121094 1122.210938 977.261719 1093.210938 C 1006.378906 1076.699219 1080.679688 1033.558594 1142.371094 997.328125 L 1254.539062 931.46875 L 1257.539062 996.480469 C 1259.550781 1040.128906 1256.261719 1065.628906 1247.53125 1074.089844 C 1231.070312 1090.039062 950.390625 1218.300781 931.945312 1218.300781 C 921.8125 1218.300781 919.015625 1205.859375 921.269531 1170.769531 Z M 1689.828125 1209.800781 C 1663.03125 1205.929688 1645.199219 1198.21875 1645.800781 1190.78125 C 1646.351562 1183.898438 1647.480469 1169.621094 1648.300781 1159.058594 C 1649.570312 1142.808594 1660.25 1138.898438 1717.351562 1133.800781 C 1847.660156 1122.140625 2205.929688 1060.699219 2256.308594 1041.371094 C 2269.621094 1036.269531 2270.820312 1042.429688 2264.671875 1084.320312 C 2252.960938 1164.039062 2245.691406 1175.628906 2203.289062 1182.308594 C 2077.359375 1202.109375 1755.769531 1219.339844 1689.828125 1209.800781 Z M 712.921875 1173.601562 C 709.824219 1165.519531 709.09375 1153.5 711.300781 1146.878906 C 716.433594 1131.480469 851.792969 1048.621094 861.777344 1054.761719 C 865.90625 1057.300781 869.285156 1078.261719 869.285156 1101.339844 L 869.285156 1143.320312 L 804.867188 1165.800781 C 728.96875 1192.289062 720.371094 1193.019531 712.921875 1173.601562 Z M 1649.960938 1095.710938 C 1650.261719 1072.46875 1664.660156 1061.109375 1702.78125 1054.089844 C 1790.378906 1037.980469 1963.789062 982.738281 2087.628906 931.5 C 2160.570312 901.308594 2228.011719 878.109375 2237.480469 879.929688 C 2246.949219 881.761719 2260.378906 894.46875 2267.320312 908.179688 C 2281.691406 936.589844 2284.511719 1004.328125 2271.648438 1012.269531 C 2258.289062 1020.53125 2037.46875 1067.238281 1909.980469 1088.78125 C 1775.699219 1111.460938 1649.71875 1114.820312 1649.960938 1095.710938 Z M 690.917969 1055.691406 C 680.183594 1016.128906 682.050781 1012.320312 722.320312 991.621094 C 739.855469 982.601562 769.964844 962.238281 789.230469 946.378906 L 824.253906 917.53125 L 836.308594 945.339844 C 862.761719 1006.320312 854.9375 1022.929688 783.777344 1056.929688 C 747.753906 1074.128906 714.113281 1088.210938 709.011719 1088.210938 C 703.914062 1088.210938 695.769531 1073.578125 690.917969 1055.691406 Z M 909.308594 1045.089844 C 909.308594 995.820312 917.332031 987.699219 1130.75 821.058594 L 1247.121094 730.191406 L 1253.328125 775.511719 C 1267.789062 881.019531 1264.519531 891.960938 1207.011719 930.019531 C 1138.410156 975.429688 933.789062 1088.210938 920.019531 1088.210938 C 914.066406 1088.210938 909.308594 1069.058594 909.308594 1045.089844 Z M 654.125 948.070312 C 647.320312 926.628906 660.242188 906.679688 729.84375 831.171875 C 752.023438 807.109375 773.84375 789.691406 778.328125 792.460938 C 790.34375 799.890625 812.410156 884.859375 805.304688 896.359375 C 792.855469 916.5 704.964844 968.128906 683.117188 968.128906 C 669.261719 968.128906 658.023438 960.359375 654.125 948.070312 Z M 883.78125 923.421875 C 875.808594 904.339844 869.382812 885.199219 869.503906 880.890625 C 869.617188 876.589844 939.371094 799.101562 1024.488281 708.691406 C 1109.621094 618.28125 1181.871094 536.109375 1185.058594 526.070312 C 1194.820312 495.308594 1203.761719 505.320312 1222.019531 567.441406 C 1248.390625 657.179688 1245.410156 688.441406 1207.011719 724.890625 C 1171.449219 758.640625 911.820312 958.121094 903.457031 958.121094 C 900.609375 958.121094 891.757812 942.511719 883.78125 923.421875 Z M 574.109375 848.070312 C 520.597656 793.75 520.582031 793.5 564.324219 682.941406 C 577.386719 649.921875 593.167969 609.390625 599.394531 592.878906 L 610.710938 562.859375 L 625.242188 590.378906 C 633.230469 605.519531 643.644531 617.898438 648.386719 617.898438 C 670.492188 617.898438 666.738281 652.839844 640.507812 691.191406 C 603.027344 745.980469 579.089844 793.28125 579.089844 812.53125 C 579.089844 844.109375 599.640625 826.398438 627.882812 770.5 C 643.871094 738.859375 665.636719 705.121094 676.246094 695.539062 C 694.769531 678.820312 696.449219 679.351562 718.253906 708.839844 C 733.722656 729.769531 739.046875 747.21875 734.941406 763.570312 C 728.863281 787.789062 653.683594 881.988281 632.941406 891.378906 C 626.789062 894.171875 600.3125 874.679688 574.109375 848.070312 Z M 839.015625 802.371094 C 833.648438 788.25 829.257812 770.621094 829.257812 763.191406 C 829.257812 755.761719 864.292969 696.390625 907.117188 631.25 C 949.941406 566.121094 1013.46875 464.421875 1048.289062 405.261719 C 1083.101562 346.089844 1113.28125 297.679688 1115.351562 297.679688 C 1121.148438 297.679688 1170.570312 397.878906 1184.21875 437.300781 C 1196.078125 471.550781 1195.148438 473.921875 1146.871094 532.648438 C 1058.171875 640.53125 878.164062 828.039062 863.289062 828.039062 C 855.304688 828.039062 844.382812 816.488281 839.015625 802.371094 Z M 784.414062 698.359375 C 760.839844 646.089844 764.972656 629.679688 847.804688 446.519531 C 886.070312 361.910156 932.160156 250.261719 950.21875 198.410156 L 983.058594 104.140625 L 1020.75 147.898438 C 1041.480469 171.960938 1066.519531 206.660156 1076.390625 225 L 1094.351562 258.351562 L 1046.78125 351.628906 C 1020.609375 402.941406 967.410156 493.96875 928.550781 553.921875 C 889.691406 613.871094 848.371094 679.808594 836.730469 700.449219 C 825.089844 721.089844 812.574219 737.980469 808.917969 737.980469 C 805.265625 737.980469 794.238281 720.148438 784.414062 698.359375 Z M 704.171875 589.859375 C 687.660156 570.289062 675.425781 547.210938 676.976562 538.558594 C 678.53125 529.910156 698.59375 473.300781 721.558594 412.761719 C 744.523438 352.21875 783.78125 235.519531 808.792969 153.421875 C 833.808594 71.320312 859.589844 2.378906 866.085938 0.210938 C 872.582031 -1.949219 895.902344 12.550781 917.90625 32.429688 C 954.226562 65.238281 957.394531 71.980469 952.253906 105.570312 C 941.71875 174.460938 781.785156 566.101562 745.957031 610.75 C 736 623.160156 729.578125 619.949219 704.171875 589.859375 Z M 704.171875 589.859375 "/>
</svg>
